<svg width="24" height="24" viewBox="0 0 24 24" fill="none" xmlns="http://www.w3.org/2000/svg">
<path d="M19.25 11C19.25 11.4142 19.5858 11.75 20 11.75C20.4142 11.75 20.75 11.4142 20.75 11H20H19.25ZM14 4.75C13.5858 4.75 13.25 5.08579 13.25 5.5C13.25 5.91421 13.5858 6.25 14 6.25V5.5V4.75ZM13 5.5L12.4697 4.96967C12.1768 5.26256 12.1768 5.73744 12.4697 6.03033L13 5.5ZM16.0303 3.53033C16.3232 3.23744 16.3232 2.76256 16.0303 2.46967C15.7374 2.17678 15.2626 2.17678 14.9697 2.46967L15.5 3L16.0303 3.53033ZM14.9697 8.53033C15.2626 8.82322 15.7374 8.82322 16.0303 8.53033C16.3232 8.23744 16.3232 7.76256 16.0303 7.46967L15.5 8L14.9697 8.53033ZM8.7556 4.80625L8.07024 5.11085L8.07024 5.11085L8.7556 4.80625ZM9.15825 5.71223L8.4729 6.01683V6.01683L9.15825 5.71223ZM19.1937 15.2444L18.8891 15.9298H18.8891L19.1937 15.2444ZM18.2878 14.8417L17.9832 15.5271L17.9832 15.5271L18.2878 14.8417ZM17.9603 20.9254L17.8883 21.672H17.8883L17.9603 20.9254ZM3.07458 6.0397L2.32805 6.11173L3.07458 6.0397ZM11.7133 15.7201L12.0668 15.0587H12.0668L11.7133 15.7201ZM8.27986 12.2867L8.94133 11.9332V11.9332L8.27986 12.2867ZM14.967 15.3038L15.4471 15.88L14.967 15.3038ZM13.8337 16.0947L13.5764 15.3902L13.5764 15.3902L13.8337 16.0947ZM12.8523 16.1951L12.743 16.9371L12.743 16.9371L12.8523 16.1951ZM16.9995 14.3831L16.9285 15.1297V15.1297L16.9995 14.3831ZM16.0811 14.5109L16.3532 15.2097L16.3532 15.2097L16.0811 14.5109ZM20.9122 16.7643L21.6293 16.5449V16.5449L20.9122 16.7643ZM20.309 15.8362L19.8172 16.4024L19.8172 16.4024L20.309 15.8362ZM20.8177 19.8443L20.1358 19.532V19.532L20.8177 19.8443ZM19.6494 20.9053L19.8948 21.614L19.8948 21.614L19.6494 20.9053ZM8.69619 9.033L9.27235 9.51314L9.27235 9.51314L8.69619 9.033ZM7.9053 10.1663L7.20083 9.90891V9.90891L7.9053 10.1663ZM7.80487 11.1477L7.06288 11.257V11.257L7.80487 11.1477ZM9.61694 7.00048L8.87031 7.07149V7.07149L9.61694 7.00048ZM9.48915 7.91891L10.188 8.19107V8.19107L9.48915 7.91891ZM7.23567 3.08785L7.01623 3.80502V3.80502L7.23567 3.08785ZM8.1638 3.69101L7.59757 4.18282L7.59757 4.18282L8.1638 3.69101ZM4.15573 3.18229L4.46802 3.86418V3.86418L4.15573 3.18229ZM3.09473 4.3506L3.80346 4.59596V4.59596L3.09473 4.3506ZM20 11H20.75V8.5H20H19.25V11H20ZM17 5.5V4.75H14V5.5V6.25H17V5.5ZM13 5.5L13.5303 6.03033L16.0303 3.53033L15.5 3L14.9697 2.46967L12.4697 4.96967L13 5.5ZM13 5.5L12.4697 6.03033L14.9697 8.53033L15.5 8L16.0303 7.46967L13.5303 4.96967L13 5.5ZM20 8.5H20.75C20.75 6.42893 19.0711 4.75 17 4.75V5.5V6.25C18.2426 6.25 19.25 7.25736 19.25 8.5H20ZM8.7556 4.80625L8.07024 5.11085L8.4729 6.01683L9.15825 5.71223L9.84361 5.40762L9.44096 4.50165L8.7556 4.80625ZM19.1937 15.2444L19.4984 14.559L18.5924 14.1564L18.2878 14.8417L17.9832 15.5271L18.8891 15.9298L19.1937 15.2444ZM17.9603 20.9254L18.0323 20.1789C13.6283 19.7539 10.3068 18.3441 7.98133 16.0187C5.6559 13.6932 4.24608 10.3717 3.82111 5.96766L3.07458 6.0397L2.32805 6.11173C2.77641 10.7582 4.2842 14.4429 6.92067 17.0793C9.55715 19.7158 13.2418 21.2236 17.8883 21.672L17.9603 20.9254ZM11.7133 15.7201L12.0668 15.0587C10.5516 14.2489 9.75106 13.4484 8.94133 11.9332L8.27986 12.2867L7.61839 12.6402C8.56799 14.4171 9.58286 15.432 11.3598 16.3816L11.7133 15.7201ZM14.967 15.3038L14.4869 14.7276C13.9111 15.2074 13.7539 15.3254 13.5764 15.3902L13.8337 16.0947L14.0911 16.7992C14.5695 16.6244 14.9492 16.2949 15.4471 15.88L14.967 15.3038ZM11.7133 15.7201L11.3598 16.3816C11.8565 16.6471 12.2428 16.8634 12.743 16.9371L12.8523 16.1951L12.9617 15.4531C12.7709 15.425 12.6281 15.3587 12.0668 15.0587L11.7133 15.7201ZM13.8337 16.0947L13.5764 15.3902C13.4028 15.4536 13.1444 15.4801 12.9617 15.4531L12.8523 16.1951L12.743 16.9371C13.1727 17.0004 13.6831 16.9482 14.0911 16.7992L13.8337 16.0947ZM18.2878 14.8417L18.5924 14.1564C17.9992 13.8928 17.5474 13.6818 17.0705 13.6364L16.9995 14.3831L16.9285 15.1297C17.1036 15.1463 17.2933 15.2205 17.9832 15.5271L18.2878 14.8417ZM14.967 15.3038L15.4471 15.88C16.0271 15.3967 16.1894 15.2735 16.3532 15.2097L16.0811 14.5109L15.8089 13.812C15.3626 13.9858 14.9855 14.3121 14.4869 14.7276L14.967 15.3038ZM16.9995 14.3831L17.0705 13.6364C16.6421 13.5957 16.21 13.6558 15.8089 13.812L16.0811 14.5109L16.3532 15.2097C16.5361 15.1385 16.7331 15.1111 16.9285 15.1297L16.9995 14.3831ZM21 18.0238H21.75C21.75 17.4244 21.7579 16.965 21.6293 16.5449L20.9122 16.7643L20.195 16.9838C20.2421 17.1379 20.25 17.3267 20.25 18.0238H21ZM19.1937 15.2444L18.8891 15.9298C19.5261 16.2129 19.6955 16.2968 19.8172 16.4024L20.309 15.8362L20.8008 15.27C20.4691 14.9819 20.0461 14.8025 19.4984 14.559L19.1937 15.2444ZM20.9122 16.7643L21.6293 16.5449C21.4781 16.0507 21.191 15.6089 20.8008 15.27L20.309 15.8362L19.8172 16.4024C19.9951 16.557 20.126 16.7584 20.195 16.9838L20.9122 16.7643ZM21 18.0238H20.25C20.25 18.5097 20.2495 18.8307 20.2296 19.081C20.2106 19.3199 20.1769 19.4422 20.1358 19.532L20.8177 19.8443L21.4996 20.1566C21.6408 19.8483 21.6983 19.5346 21.7249 19.1998C21.7505 18.8764 21.75 18.4862 21.75 18.0238H21ZM17.9603 20.9254L17.8883 21.672C18.6769 21.7481 19.2919 21.8227 19.8948 21.614L19.6494 20.9053L19.404 20.1965C19.1795 20.2743 18.9443 20.2669 18.0323 20.1789L17.9603 20.9254ZM20.8177 19.8443L20.1358 19.532C20.0064 19.8146 19.6978 20.0948 19.404 20.1965L19.6494 20.9053L19.8948 21.614C20.5756 21.3783 21.1996 20.8116 21.4996 20.1566L20.8177 19.8443ZM8.69619 9.033L8.12002 8.55286C7.70505 9.05083 7.37562 9.43046 7.20083 9.90891L7.9053 10.1663L8.60976 10.4236C8.67461 10.2461 8.79256 10.0889 9.27235 9.51314L8.69619 9.033ZM8.27986 12.2867L8.94133 11.9332C8.64135 11.3719 8.57496 11.2291 8.54686 11.0383L7.80487 11.1477L7.06288 11.257C7.13659 11.7572 7.35293 12.1435 7.61839 12.6402L8.27986 12.2867ZM7.9053 10.1663L7.20083 9.90891C7.0518 10.3169 6.99956 10.8273 7.06288 11.257L7.80487 11.1477L8.54686 11.0383C8.51992 10.8556 8.54636 10.5972 8.60976 10.4236L7.9053 10.1663ZM9.15825 5.71223L8.4729 6.01683C8.77952 6.70673 8.85366 6.89642 8.87031 7.07149L9.61694 7.00048L10.3636 6.92946C10.3182 6.45262 10.1072 6.00079 9.84361 5.40762L9.15825 5.71223ZM8.69619 9.033L9.27235 9.51314C9.6879 9.01448 10.0142 8.63741 10.188 8.19107L9.48915 7.91891L8.79027 7.64676C8.72645 7.81064 8.60333 7.97289 8.12002 8.55286L8.69619 9.033ZM9.61694 7.00048L8.87031 7.07149C8.8889 7.26687 8.86148 7.46388 8.79027 7.64676L9.48915 7.91891L10.188 8.19107C10.3442 7.79 10.4043 7.35793 10.3636 6.92946L9.61694 7.00048ZM5.97621 3V3.75C6.67329 3.75 6.86213 3.75787 7.01623 3.80502L7.23567 3.08785L7.45512 2.37067C7.03504 2.24213 6.57563 2.25 5.97621 2.25V3ZM8.7556 4.80625L9.44096 4.50165C9.19751 3.95389 9.01812 3.53088 8.73004 3.19921L8.1638 3.69101L7.59757 4.18282C7.70324 4.30449 7.78713 4.47386 8.07024 5.11085L8.7556 4.80625ZM7.23567 3.08785L7.01623 3.80502C7.24159 3.87398 7.44303 4.00489 7.59757 4.18282L8.1638 3.69101L8.73004 3.19921C8.39112 2.80899 7.94935 2.5219 7.45512 2.37067L7.23567 3.08785ZM5.97621 3V2.25C5.51378 2.25 5.12357 2.24945 4.80022 2.27514C4.46542 2.30174 4.15173 2.35921 3.84343 2.5004L4.15573 3.18229L4.46802 3.86418C4.55775 3.82308 4.68015 3.78941 4.91901 3.77043C5.16932 3.75055 5.49033 3.75 5.97621 3.75V3ZM3.07458 6.0397L3.82111 5.96766C3.73312 5.05575 3.72574 4.82045 3.80346 4.59596L3.09473 4.3506L2.386 4.10524C2.17728 4.70814 2.25195 5.32311 2.32805 6.11173L3.07458 6.0397ZM4.15573 3.18229L3.84343 2.5004C3.18837 2.80041 2.6217 3.42439 2.386 4.10524L3.09473 4.3506L3.80346 4.59596C3.90516 4.30217 4.18537 3.99363 4.46802 3.86418L4.15573 3.18229Z" fill="#222222"/>
</svg>
