<svg width="205" height="73" viewBox="0 0 205 73" fill="none" xmlns="http://www.w3.org/2000/svg">
<path d="M138.574 45.574V55.0559C138.574 67.0186 134.645 73 126.787 73C118.929 73 115 67.0186 115 55.0559V17.9441C115 5.98138 118.929 0 126.787 0C134.645 0 138.574 5.98138 138.574 17.9441V24.8771H131.099V17.2304C131.099 12.5405 129.734 10.1955 127.003 10.1955C124.271 10.1955 122.906 12.5405 122.906 17.2304V55.7696C122.906 60.3915 124.271 62.7025 127.003 62.7025C129.734 62.7025 131.099 60.3915 131.099 55.7696V45.574H138.574Z" fill="#007F55"/>
<path d="M150.63 55.7696C150.63 60.4595 151.996 62.8045 154.727 62.8045C157.458 62.8045 158.823 60.4595 158.823 55.7696V17.2304C158.823 12.5405 157.458 10.1955 154.727 10.1955C151.996 10.1955 150.63 12.5405 150.63 17.2304V55.7696ZM142.724 17.9441C142.724 12.2346 143.754 7.81657 145.815 4.68994C147.875 1.56331 150.846 0 154.727 0C158.608 0 161.578 1.56331 163.639 4.68994C165.699 7.81657 166.729 12.2346 166.729 17.9441V55.0559C166.729 60.7654 165.699 65.1834 163.639 68.3101C161.578 71.4367 158.608 73 154.727 73C150.846 73 147.875 71.4367 145.815 68.3101C143.754 65.1834 142.724 60.7654 142.724 55.0559V17.9441Z" fill="#007F55"/>
<path d="M188.613 51.4874L194.004 0.815638H205V73H197.525V21.0028L192.063 73H184.588L178.695 21.7165V73H171.795V0.815638H182.792L188.613 51.4874Z" fill="#007F55"/>
<path d="M102.703 35.4436C98.6708 31.3179 93.2022 29 87.5 29H71.5C69.6727 29 67.9203 28.3072 66.6283 26.985C65.3362 25.6629 64.6103 23.8698 64.6103 22C64.6103 20.1302 65.3362 18.3371 66.6283 17.015C67.9203 15.6928 69.6727 15 71.5 15V11.8288V0C68.4559 0 65.4783 0.660583 62.7504 1.90417C60.3684 2.99004 58.1767 4.52042 56.2972 6.44365C52.2652 10.5694 50 16.1652 50 22C50 27.8348 52.2652 33.4305 56.2972 37.5563C60.3292 41.6821 65.7978 44 71.5 44H87.5C89.3273 44 91.0797 44.6928 92.3717 46.015C93.6638 47.3371 94.3897 49.1302 94.3897 51C94.3897 52.8698 93.6638 54.6629 92.3717 55.985C91.0797 57.3072 89.3273 58 87.5 58V73C93.2022 73 98.6708 70.6821 102.703 66.5563C106.735 62.4305 109 56.8348 109 51C109 45.1652 106.735 39.5695 102.703 35.4436Z" fill="#262324"/>
<path d="M71.5 11.8288V15L83 15C78.9075 15 74.9326 13.8856 71.5 11.8288Z" fill="#262324"/>
<path d="M83 15C88.8348 15 94.4305 12.7348 98.5564 8.7028C101.071 6.24487 102.915 3.2531 103.971 0H71.5V11.8288C74.9326 13.8856 78.9075 15 83 15Z" fill="#262324"/>
<path d="M83.5 61.1712V58L76 58C80.0925 58 80.0674 59.1144 83.5 61.1712Z" fill="#262324"/>
<path d="M76 58C70.1652 58 64.5695 60.2652 60.4437 64.2972C57.9286 66.7551 56.0853 69.7469 55.0295 73H83.5V61.1712C80.0674 59.1144 80.0925 58 76 58Z" fill="#262324"/>
<path d="M87.5 73V58H83.5V61.1712V73H87.5Z" fill="#262324"/>
<path d="M47 62.5C47 68.299 42.299 73 36.5 73C30.701 73 26 68.299 26 62.5C26 56.701 30.701 52 36.5 52C42.299 52 47 56.701 47 62.5Z" fill="#007F55"/>
<path d="M40.5 18C40.5 10.5591 44.1944 3.98143 49.8486 0H15C6.71573 0 0 6.71573 0 15H26V49C34.2843 49 40.5 42.2843 40.5 34V18Z" fill="#262324"/>
</svg>
