<svg width="24" height="24" viewBox="0 0 24 24" fill="none" xmlns="http://www.w3.org/2000/svg">
<path d="M6.99981 8.49978L9.94183 10.2392C11.657 11.2533 12.3426 11.2533 14.0578 10.2392L16.9998 8.49978M9.09824 3.53595C11.0387 3.4872 12.9601 3.4872 14.9006 3.53596C18.0491 3.61507 19.6233 3.65462 20.7545 4.79005C21.8856 5.92548 21.9183 7.45825 21.9837 10.5238C22.0047 11.5095 22.0047 12.4893 21.9837 13.475C21.9183 16.5405 21.8856 18.0733 20.7545 19.2087C19.6233 20.3442 18.0491 20.3837 14.9006 20.4628C12.9601 20.5116 11.0387 20.5116 9.09825 20.4628C5.94975 20.3837 4.3755 20.3442 3.24438 19.2087C2.11325 18.0733 2.08056 16.5405 2.01519 13.475C1.99417 12.4893 1.99416 11.5095 2.01518 10.5238C2.08056 7.45824 2.11324 5.92547 3.24437 4.79004C4.3755 3.6546 5.94975 3.61505 9.09824 3.53595Z" stroke="#222222" stroke-width="1.5" stroke-linecap="round" stroke-linejoin="round"/>
</svg>
